<?xml version="1.0" encoding="UTF-8" standalone="no"?>
<svg
   class="ionicon"
   viewBox="0 0 512 512"
   version="1.1"
   sodipodi:docname="camera-outline.svg"
   xmlns:inkscape="http://www.inkscape.org/namespaces/inkscape"
   xmlns:sodipodi="http://sodipodi.sourceforge.net/DTD/sodipodi-0.dtd"
   xmlns="http://www.w3.org/2000/svg"
   xmlns:svg="http://www.w3.org/2000/svg">
  <path
     d="m 334.20888,148.15139 -22.10849,-34.93174 c -4.65923,-5.43161 -11.04594,-8.82014 -18.20504,-8.82014 h -76.40799 c -7.1591,0 -13.54581,3.38853 -18.20504,8.82014 l -22.10849,34.93174 c -4.65922,5.43992 -10.6639,9.40151 -17.82299,9.40151 h -49.83131 a 26.576695,26.576695 0 0 0 -26.576691,26.57669 v 159.46017 a 26.576695,26.576695 0 0 0 26.576691,26.5767 h 292.34365 a 26.576695,26.576695 0 0 0 26.57669,-26.5767 V 184.12959 A 26.576695,26.576695 0 0 0 401.86318,157.5529 H 352.8624 c -7.18402,0 -13.99429,-3.96159 -18.65352,-9.40151 z"
     fill="none"
     stroke="currentColor"
     stroke-linecap="round"
     stroke-linejoin="round"
     stroke-width="26.5767" />
  <circle
     cx="255.69136"
     cy="250.57133"
     r="66.441734"
     fill="none"
     stroke="currentColor"
     stroke-miterlimit="10"
     stroke-width="26.5767" />
  <path
     fill="none"
     stroke="currentColor"
     stroke-linecap="round"
     stroke-linejoin="round"
     stroke-width="26.5767"
     d="m 146.06249,155.89185 v -18.27147 h -19.93252 v 18.27147" />
  <circle
     style="fill:none;fill-opacity:1;stroke:#ffffff;stroke-width:37.2479;stroke-dasharray:none;stroke-opacity:1"
     cx="256.17398"
     cy="256.79129"
     r="237.12959" />
  <rect
     style="fill:none;stroke:#ffffff;stroke-width:35.4722;stroke-dasharray:none;stroke-opacity:1"
     width="7.731729"
     height="464.3063"
     x="353.79645"
     y="-220.30241"
     transform="rotate(42.774762)" />
</svg>
